<svg width="15" height="16" viewBox="0 0 15 16" xmlns="http://www.w3.org/2000/svg">
<path d="M10.5 11.75V9.5H5.25V6.5H10.5V4.25L14.25 8L10.5 11.75ZM9 0.5C9.39782 0.5 9.77936 0.658035 10.0607 0.93934C10.342 1.22064 10.5 1.60218 10.5 2V3.5H9V2H2.25V14H9V12.5H10.5V14C10.5 14.3978 10.342 14.7794 10.0607 15.0607C9.77936 15.342 9.39782 15.5 9 15.5H2.25C1.85218 15.5 1.47064 15.342 1.18934 15.0607C0.908035 14.7794 0.75 14.3978 0.75 14V2C0.75 1.60218 0.908035 1.22064 1.18934 0.93934C1.47064 0.658035 1.85218 0.5 2.25 0.5H9Z" fill="inherit"/>
</svg>
