<svg width="18" height="16" viewBox="0 0 18 16" xmlns="http://www.w3.org/2000/svg">
<path d="M3 0.5V5H1.5V0.5H3ZM1.5 15.5H3V11H1.5V15.5ZM3.75 8C3.75 7.175 3.0825 6.5 2.25 6.5C1.425 6.5 0.75 7.175 0.75 8C0.75 8.8325 1.425 9.5 2.25 9.5C3.0825 9.5 3.75 8.8325 3.75 8ZM18 3.5V12.5C18 13.3325 17.3325 14 16.5 14H7.5C6.675 14 6 13.3325 6 12.5V9.5L4.5 8L6 6.5V3.5C6 2.6675 6.675 2 7.5 2H16.5C17.3325 2 18 2.6675 18 3.5ZM14.25 8.75H8.25V10.25H14.25V8.75ZM15.75 5.75H8.25V7.25H15.75V5.75Z" fill="inherit"/>
</svg>
