<svg width="171" height="25" viewBox="0 0 171 25" fill="none" xmlns="http://www.w3.org/2000/svg">
<path d="M39.5489 6.52395C37.0812 6.52395 34.9958 7.39287 33.2927 9.16547C31.6244 10.9033 30.7902 13.0582 30.7902 15.665C30.7902 18.2718 31.6244 20.4267 33.2927 22.1993C34.9958 23.9371 37.0812 24.806 39.5489 24.806C42.4338 24.806 44.5539 23.5895 45.1448 21.8865V24.4237H49.3156V0.198212H45.1448V9.44352C44.5539 7.74044 42.4338 6.52395 39.5489 6.52395ZM40.105 21.0175C38.6105 21.0175 37.394 20.4962 36.3861 19.4882C35.4129 18.4803 34.9263 17.1943 34.9263 15.665C34.9263 14.1357 35.4129 12.8497 36.3861 11.8417C37.394 10.8338 38.6105 10.3124 40.105 10.3124C41.5996 10.3124 42.8856 10.8338 43.8935 11.8417C44.9362 12.8497 45.4576 14.1357 45.4576 15.665C45.4576 17.1943 44.9362 18.4803 43.8935 19.4882C42.8856 20.4962 41.5996 21.0175 40.105 21.0175Z" fill="#013765"/>
<path d="M60.9665 6.52395C58.4987 6.52395 56.4133 7.39287 54.7102 9.16547C53.0419 10.9033 52.2077 13.0582 52.2077 15.665C52.2077 18.2718 53.0419 20.4267 54.7102 22.1993C56.4133 23.9371 58.4987 24.806 60.9665 24.806C63.8513 24.806 65.9714 23.5895 66.5623 21.8865V24.4237H70.7331V6.90628H66.5623V9.44352C65.9714 7.74044 63.8513 6.52395 60.9665 6.52395ZM61.5226 21.0175C60.028 21.0175 58.8115 20.4962 57.8036 19.4882C56.8304 18.4803 56.3438 17.1943 56.3438 15.665C56.3438 14.1357 56.8304 12.8497 57.8036 11.8417C58.8115 10.8338 60.028 10.3124 61.5226 10.3124C63.0171 10.3124 64.3031 10.8338 65.3111 11.8417C66.3538 12.8497 66.8751 14.1357 66.8751 15.665C66.8751 17.1943 66.3538 18.4803 65.3111 19.4882C64.3031 20.4962 63.0171 21.0175 61.5226 21.0175Z" fill="#013765"/>
<path d="M79.7085 24.4237V10.6948H83.497V6.90628H79.7085V0.198212H75.5377V6.90628H73.2785V10.6948H75.5377V24.4237H79.7085Z" fill="#013765"/>
<path d="M93.2455 6.52395C90.7778 6.52395 88.6924 7.39287 86.9893 9.16547C85.3209 10.9033 84.4868 13.0582 84.4868 15.665C84.4868 18.2718 85.3209 20.4267 86.9893 22.1993C88.6924 23.9371 90.7778 24.806 93.2455 24.806C96.1303 24.806 98.2505 23.5895 98.8413 21.8865V24.4237H103.012V6.90628H98.8413V9.44352C98.2505 7.74044 96.1303 6.52395 93.2455 6.52395ZM93.8016 21.0175C92.3071 21.0175 91.0906 20.4962 90.0826 19.4882C89.1094 18.4803 88.6228 17.1943 88.6228 15.665C88.6228 14.1357 89.1094 12.8497 90.0826 11.8417C91.0906 10.8338 92.3071 10.3124 93.8016 10.3124C95.2962 10.3124 96.5821 10.8338 97.5901 11.8417C98.6328 12.8497 99.1542 14.1357 99.1542 15.665C99.1542 17.1943 98.6328 18.4803 97.5901 19.4882C96.5821 20.4962 95.2962 21.0175 93.8016 21.0175Z" fill="#013765"/>
<path d="M110.771 24.4237V14.3442C110.771 11.946 112.474 10.2777 114.838 10.2777C117.166 10.2777 118.557 11.7722 118.557 14.1705V24.4237H122.727V13.5796C122.727 9.23498 120.26 6.55871 116.089 6.55871C113.586 6.55871 111.605 7.70568 110.771 9.40877V6.90628H106.635V24.4237H110.771Z" fill="#013765"/>
<path d="M128.27 22.2688C130.112 24.0414 132.371 24.9451 135.047 24.9451C137.723 24.9451 139.983 24.0414 141.825 22.2688C143.667 20.4962 144.605 18.2718 144.605 15.665C144.605 13.0582 143.667 10.8338 141.825 9.0612C139.983 7.2886 137.723 6.38492 135.047 6.38492C132.371 6.38492 130.112 7.2886 128.27 9.0612C126.427 10.8338 125.489 13.0582 125.489 15.665C125.489 18.2718 126.427 20.4962 128.27 22.2688ZM135.047 21.1566C133.483 21.1566 132.197 20.6352 131.154 19.5925C130.146 18.5151 129.625 17.229 129.625 15.665C129.625 14.1009 130.146 12.8149 131.154 11.7722C132.197 10.6948 133.483 10.1734 135.047 10.1734C136.576 10.1734 137.862 10.6948 138.905 11.7722C139.948 12.8149 140.469 14.1009 140.469 15.665C140.469 17.229 139.948 18.5151 138.905 19.5925C137.862 20.6352 136.576 21.1566 135.047 21.1566Z" fill="#013765"/>
<path d="M153.957 24.4237L157.572 13.3363L161.187 24.4237H164.419L170.293 6.90628H166.331L162.681 17.8199L159.136 6.90628H155.973L152.428 17.8199L148.779 6.90628H144.851L150.69 24.4237H153.957Z" fill="#013765"/>
<circle cx="3.76676" cy="3.76676" r="3.76676" fill="#2DCA73"/>
<circle cx="12.4468" cy="12.4467" r="3.76676" fill="#008DFF"/>
<circle cx="3.76676" cy="21.1267" r="3.76676" fill="#FF015B"/>
</svg>
