<svg width="15" height="15" viewBox="0 0 15 15" xmlns="http://www.w3.org/2000/svg">
<path d="M7.50012 4.5C8.29577 4.5 9.05884 4.81607 9.62144 5.37868C10.1841 5.94129 10.5001 6.70435 10.5001 7.5C10.5001 8.29565 10.1841 9.05871 9.62144 9.62132C9.05884 10.1839 8.29577 10.5 7.50012 10.5C6.70447 10.5 5.94141 10.1839 5.3788 9.62132C4.81619 9.05871 4.50012 8.29565 4.50012 7.5C4.50012 6.70435 4.81619 5.94129 5.3788 5.37868C5.94141 4.81607 6.70447 4.5 7.50012 4.5ZM7.50012 6C7.1023 6 6.72077 6.15804 6.43946 6.43934C6.15816 6.72064 6.00012 7.10218 6.00012 7.5C6.00012 7.89782 6.15816 8.27936 6.43946 8.56066C6.72077 8.84196 7.1023 9 7.50012 9C7.89795 9 8.27948 8.84196 8.56078 8.56066C8.84209 8.27936 9.00012 7.89782 9.00012 7.5C9.00012 7.10218 8.84209 6.72064 8.56078 6.43934C8.27948 6.15804 7.89795 6 7.50012 6ZM6.00012 15C5.81262 15 5.65512 14.865 5.62512 14.685L5.34762 12.6975C4.87512 12.51 4.47012 12.255 4.08012 11.955L2.21262 12.7125C2.04762 12.7725 1.84512 12.7125 1.75512 12.5475L0.255124 9.9525C0.157624 9.7875 0.202624 9.585 0.345124 9.4725L1.92762 8.2275L1.87512 7.5L1.92762 6.75L0.345124 5.5275C0.202624 5.415 0.157624 5.2125 0.255124 5.0475L1.75512 2.4525C1.84512 2.2875 2.04762 2.22 2.21262 2.2875L4.08012 3.0375C4.47012 2.745 4.87512 2.49 5.34762 2.3025L5.62512 0.315C5.65512 0.135 5.81262 0 6.00012 0H9.00012C9.18762 0 9.34512 0.135 9.37512 0.315L9.65262 2.3025C10.1251 2.49 10.5301 2.745 10.9201 3.0375L12.7876 2.2875C12.9526 2.22 13.1551 2.2875 13.2451 2.4525L14.7451 5.0475C14.8426 5.2125 14.7976 5.415 14.6551 5.5275L13.0726 6.75L13.1251 7.5L13.0726 8.25L14.6551 9.4725C14.7976 9.585 14.8426 9.7875 14.7451 9.9525L13.2451 12.5475C13.1551 12.7125 12.9526 12.78 12.7876 12.7125L10.9201 11.9625C10.5301 12.255 10.1251 12.51 9.65262 12.6975L9.37512 14.685C9.34512 14.865 9.18762 15 9.00012 15H6.00012ZM6.93762 1.5L6.66012 3.4575C5.76012 3.645 4.96512 4.125 4.38762 4.7925L2.58012 4.0125L2.01762 4.9875L3.60012 6.15C3.30012 7.0275 3.30012 7.98 3.60012 8.85L2.01012 10.02L2.57262 10.995L4.39512 10.215C4.97262 10.875 5.76012 11.355 6.65262 11.535L6.93012 13.5H8.07012L8.34762 11.5425C9.24012 11.355 10.0276 10.875 10.6051 10.215L12.4276 10.995L12.9901 10.02L11.4001 8.8575C11.7001 7.98 11.7001 7.0275 11.4001 6.15L12.9826 4.9875L12.4201 4.0125L10.6126 4.7925C10.0351 4.125 9.24012 3.645 8.34012 3.465L8.06262 1.5H6.93762Z" fill="inherit"/>
</svg>
