<svg width="15" height="12" viewBox="0 0 15 12" xmlns="http://www.w3.org/2000/svg">
<path d="M1.5 0H13.5C13.8978 0 14.2794 0.158035 14.5607 0.43934C14.842 0.720644 15 1.10218 15 1.5V10.5C15 10.8978 14.842 11.2794 14.5607 11.5607C14.2794 11.842 13.8978 12 13.5 12H1.5C1.10218 12 0.720644 11.842 0.43934 11.5607C0.158035 11.2794 0 10.8978 0 10.5V1.5C0 1.10218 0.158035 0.720644 0.43934 0.43934C0.720644 0.158035 1.10218 0 1.5 0ZM1.5 1.5V10.5H6.75V1.5H1.5ZM13.5 10.5V1.5H12.57C12.75 1.905 12.7125 2.3025 12.7125 2.3475C12.66 2.85 12.3075 3.375 12.18 3.5625L10.4325 5.475L12.9225 5.46L12.93 6.375L9.03 6.3525L9 5.6025C9 5.6025 11.2875 3.18 11.4 2.9625C11.505 2.7525 11.9325 1.5 10.875 1.5C9.9525 1.5375 10.0575 2.475 10.0575 2.475L8.9025 2.4825C8.9025 2.4825 8.91 1.9875 9.1875 1.5H8.25V10.5H10.185L10.1775 9.855L10.905 9.8475C10.905 9.8475 11.5875 9.7275 11.595 9.06C11.625 8.31 10.9875 8.31 10.875 8.31C10.7775 8.31 10.0725 8.3475 10.0725 8.9625H8.9325C8.9325 8.9625 8.9625 7.4175 10.875 7.4175C12.825 7.4175 12.72 8.9325 12.72 8.9325C12.72 8.9325 12.75 9.87 11.8875 10.2225L12.2775 10.5H13.5ZM5.19 9H4.065V4.65L2.715 5.07V4.1475L5.07 3.3075H5.19V9Z" fill="inherit"/>
</svg>
